<svg width="144" height="141" viewBox="0 0 144 141" fill="none" xmlns="http://www.w3.org/2000/svg">
<path d="M0.000246639 15.9443L11.7126 9.20376L12.7183 11.0049L3.5714 16.2495L6.30148 21.1007L13.7921 16.7897L14.7549 18.489L7.26429 22.8L10.3824 28.3338L19.7639 22.9413L20.7696 24.7424L8.80818 31.6164L0 15.9735L0.000246639 15.9443Z" fill="#5A5A5A"/>
<path d="M19.8642 21.4518L21.4825 19.8326C22.466 20.8166 24.3846 21.6175 26.8279 20.7648C29.2712 19.912 30.4501 18.5009 30.194 17.7442C29.227 14.8335 20.0198 20.3121 18.3986 15.4222C17.9577 14.0979 18.9287 11.4188 22.9666 10.0125C26.3463 8.83065 28.9938 9.68369 30.4823 11.3201L28.6906 12.7365C27.7505 11.7959 25.9623 11.0961 23.7093 11.8742C21.4124 12.6673 20.5563 13.8422 20.8409 14.6863C21.7084 17.2913 31.0742 12.0302 32.6101 16.6581C33.4069 19.0156 30.906 21.4888 27.2631 22.7605C24.2054 23.8228 21.6005 23.1008 19.8789 21.4371L19.8642 21.4518Z" fill="#5A5A5A"/>
<path d="M34.9357 15.9231L33.7843 8.97143L31.7243 9.35389L31.4333 7.56126L33.4933 7.17881L33.0075 4.27866L35.6904 2.69414L36.3567 6.65813L40.4037 5.90843L40.6947 7.70106L36.6478 8.45076L37.758 15.0963C38.1044 17.2388 38.9156 17.9032 39.8651 17.7345C40.8439 17.5656 41.2753 16.5841 41.5535 14.7428L43.8115 15.0884C43.1186 17.6629 42.071 19.0584 39.9235 19.4416C37.5129 19.8854 35.4217 18.7941 34.9504 15.9084L34.9357 15.9231Z" fill="#5A5A5A"/>
<path d="M45.2247 13.5877L45.3111 5.16598L48.1995 5.14131L48.1175 13.0376C48.0989 15.2269 49.7222 16.439 51.8668 16.4061C54.1716 16.3864 55.8194 14.7377 56.4319 13.0541L56.4999 5.085L59.3882 5.06032L59.2774 18.0503L57.0017 18.0698L56.5234 14.2939L56.3775 14.2951C55.4075 16.8574 52.9877 18.3813 50.5225 18.3878C47.9989 18.3948 45.1656 17.0909 45.21 13.6024L45.2247 13.5877ZM52.0212 0.0152021L53.8009 0L52.0819 3.16708L50.944 3.1768L52.0068 0.000732301L52.0212 0.0152021Z" fill="#5A5A5A"/>
<path d="M61.4039 11.5814C62.2086 7.88214 65.161 5.47802 69.3696 6.30314C71.9034 6.8069 73.5806 8.5439 74.0459 10.4226L74.1771 10.4361L75.9537 2.23343L78.7788 2.79307L74.8604 20.9528L72.2975 20.4493L72.776 17.3658L72.5575 17.3239C71.3471 18.998 69.1642 20.1112 66.4995 19.5648C62.2765 18.7252 60.5693 15.3685 61.3894 11.5669L61.4039 11.5814ZM67.7712 17.5399C71.0476 18.1979 72.8705 16.5477 73.4021 14.0767L73.5083 13.5942C74.0095 11.2694 72.8013 9.26568 69.6853 8.62096C66.3361 7.94904 64.7606 9.67004 64.229 12.141C63.6824 14.656 64.4223 16.8388 67.7715 17.5107L67.7712 17.5399Z" fill="#5A5A5A"/>
<path d="M84.4858 5.79456C85.3875 6.10793 85.9351 6.89135 85.6219 7.69672C85.3087 8.50209 84.4023 8.74335 83.5006 8.42997C82.5989 8.1166 82.0512 7.33317 82.3644 6.52781C82.6776 5.72244 83.5841 5.48118 84.4858 5.79456ZM81.4909 9.74605L84.1958 10.7154L79.657 22.9551L76.9521 21.9858L81.4909 9.74605Z" fill="#5A5A5A"/>
<path d="M84.3869 17.3834C86.1805 14.0259 89.9117 12.666 94.1667 14.8918C98.3635 17.0889 99.3081 20.9191 97.5 24.2621C95.662 27.6929 91.9305 29.0821 87.7337 26.885C83.4643 24.6447 82.5344 20.7997 84.3724 17.3689L84.3869 17.3834ZM88.8007 24.9202C91.7487 26.4566 93.7281 25.2576 94.9585 22.9557C96.1591 20.7125 96.0621 18.4074 93.1141 16.871C90.0936 15.2914 88.1139 16.5197 86.9134 18.7337C85.6978 21.0208 85.7804 23.3114 88.7862 24.9057L88.8007 24.9202Z" fill="#5A5A5A"/>
<path d="M103.242 28.2703C105.862 25.5042 109.615 24.9905 112.726 27.9266C114.608 29.691 115.098 32.0657 114.513 33.9242L114.6 34.011L120.414 27.8755L122.498 29.8425L109.662 43.4082L107.767 41.6293L109.8 39.2185L109.656 39.0738C107.753 39.8781 105.333 39.6945 103.35 37.8287C100.239 34.8926 100.563 31.0953 103.242 28.2703ZM105.475 36.7452C107.891 39.0159 110.287 38.5867 112.053 36.7328L112.392 36.3942C114.011 34.6582 114.075 32.2788 111.76 30.1094C109.285 27.7808 107.063 28.4128 105.311 30.2812C103.53 32.1791 103 34.4166 105.474 36.7744L105.475 36.7452Z" fill="#5A5A5A"/>
<path d="M115.583 40.2053C118.694 37.9895 122.556 38.3798 125.366 42.3984C128.09 46.2719 126.965 49.9739 124.572 51.6727L123.296 52.5738L116.566 42.9844C114.876 44.4437 114.275 46.4045 116.077 48.9723C117.316 50.7422 118.94 51.8959 120.343 51.6504L120.789 54.0401C118.408 54.3961 116.174 53.0141 114.243 50.2577C111.432 46.239 112.384 42.4218 115.569 40.1616L115.583 40.2053ZM123.207 49.2471C124.603 48.0822 125.305 46.1935 123.532 43.6838C121.817 41.232 119.893 41.0441 118.106 41.9642L123.207 49.2471Z" fill="#5A5A5A"/>
<path d="M138.458 55.261L140.622 61.489C142.472 66.8439 139.826 70.9676 134.895 72.7464C129.964 74.5253 125.368 73.0175 123.517 67.6626L121.353 61.4347L138.443 55.2466L138.458 55.261ZM125.293 66.4361C126.645 70.3504 129.831 71.3886 133.913 69.9089C137.98 68.4439 139.828 65.5822 138.476 61.6678L137.465 58.743L124.282 63.5112L125.293 66.4361Z" fill="#5A5A5A"/>
<path d="M132.832 75.2451C136.585 74.7022 139.805 76.8347 140.434 81.7331C141.036 86.4565 138.357 89.2523 135.451 89.6712L133.903 89.8888L132.412 78.2114C130.264 78.7405 128.822 80.2123 129.218 83.3467C129.491 85.5043 130.395 87.2917 131.733 87.7181L131.028 90.0739C128.773 89.2904 127.451 87.025 127.013 83.672C126.398 78.7881 128.99 75.8179 132.817 75.2598L132.832 75.2451ZM135.373 86.8552C137.141 86.4752 138.611 85.0908 138.229 82.0292C137.846 79.0552 136.251 77.9888 134.238 77.9768L135.373 86.8552Z" fill="#5A5A5A"/>
<path d="M131.575 90.8573L132.447 92.9368C131.159 93.5024 129.673 95.0183 129.52 97.5737C129.366 100.129 130.213 101.742 131.03 101.764C134.121 101.883 132.548 91.389 137.725 91.5928C139.11 91.654 141.238 93.5185 140.998 97.7529C140.792 101.316 138.98 103.477 136.902 104.282L136.278 102.099C137.523 101.548 138.862 100.121 138.985 97.7701C139.122 95.3463 138.359 94.1414 137.47 94.1053C134.714 93.9974 135.995 104.553 131.124 104.361C128.631 104.251 127.273 101.066 127.495 97.2261C127.683 93.9991 129.35 91.8395 131.575 90.8281L131.575 90.8573Z" fill="#5A5A5A"/>
<path d="M139.613 107.908L139.078 110.758L126.333 108.605L126.868 105.755L139.613 107.908ZM143.97 110.118C143.801 111.068 143.125 111.745 142.28 111.607C141.435 111.468 141.048 110.61 141.217 109.66C141.386 108.71 142.062 108.033 142.907 108.172C143.752 108.31 144.139 109.168 143.955 110.133L143.97 110.118Z" fill="#5A5A5A"/>
<path d="M124.167 109.47C125.389 109.839 125.933 111.031 125.898 113.44C126.606 112.47 127.443 111.894 128.403 112.178C129.247 112.433 129.835 113.552 129.762 115.362C131.014 113.936 132.695 113.498 134.31 113.995C136.652 114.72 137.901 117.117 136.777 120.615C136.402 121.8 135.869 122.709 135.251 123.386C135.505 124.318 136.285 125.304 137.301 125.879L136.105 127.567C134.901 126.804 134.624 125.084 134.604 123.946C133.503 124.758 132.174 124.989 130.894 124.591C128.508 123.852 127.23 121.426 128.324 118.016C128.534 117.372 128.757 116.83 129.068 116.317C128.978 114.931 128.617 114.482 128.122 114.34C127.438 114.127 126.993 115.065 126.064 117.933C125.135 120.802 123.809 124.097 120.957 123.216C118.047 122.336 117.966 118.163 119.09 114.636C120.244 111.021 122.319 108.888 124.152 109.456L124.167 109.47ZM121.113 115.246C120.094 118.407 120.383 120.375 121.46 120.687C122.478 121.029 123.215 120.118 124.219 116.971C124.429 116.327 124.668 115.654 124.98 115.053C125.113 113.125 124.479 112.255 123.751 112.057C122.951 111.786 121.922 112.7 121.113 115.246ZM130.026 118.542C129.322 120.693 130.143 121.926 131.598 122.381C133.038 122.821 134.414 122.255 135.118 120.103C135.837 117.879 135.031 116.631 133.605 116.205C132.15 115.75 130.774 116.317 130.041 118.556L130.026 118.542Z" fill="#5A5A5A"/>
<path d="M133.181 130.03L132.084 132.053L128.522 130.726L128.462 130.843C130.239 132.857 130.39 135.716 129.19 137.901C127.975 140.13 125.421 142.02 122.371 140.382L115.01 136.431L116.417 133.865L123.329 137.572C125.246 138.606 127.106 137.729 128.143 135.823C129.254 133.785 128.617 131.557 127.432 130.254L120.462 126.519L121.87 123.953L133.225 130.044L133.181 130.03Z" fill="#5A5A5A"/>
</svg>
