<svg width="115" height="35" viewBox="0 0 115 35" fill="none" xmlns="http://www.w3.org/2000/svg">
<g clip-path="url(#clip0_70_81)">
<path d="M39.7684 10.0073C37.4816 10.0073 35.7806 10.6602 34.0974 12.1034C32.5198 13.456 31.8586 15.965 31.5719 18.0131L30.6185 17.8704C30.9052 15.8223 30.0067 12.5904 29.0162 11.7179C27.7199 10.5779 26.2973 10.01 24.0586 10.01C21.5784 10.01 20.057 10.2528 18.319 11.7522C16.9485 12.936 16.1186 15.9759 15.8785 17.9897L14.9951 17.8718C15.5671 15.8703 16.0404 13.0979 16.0404 11.0018V10.7151L12.2721 10.7233V34.5487H17.275V21.3479C17.275 16.3916 19.1352 14.1528 22.946 14.1528C26.4729 14.1528 28.1397 16.345 28.1397 21.3479V34.5487H33.1426V21.3479C33.1426 16.3916 34.716 14.1528 38.4322 14.1528C41.8645 14.1528 43.4832 16.345 43.4832 21.3479V34.5487H48.4861V18.2051C48.4861 12.7728 44.7233 10.0086 39.767 10.0086L39.7684 10.0073Z" fill="white"/>
<path d="M75.8301 23.9913V22.3013C75.8548 19.0734 74.6586 16.0788 72.4624 13.8661C70.1591 11.5464 67.0136 10.3186 63.3701 10.3186C55.9309 10.3186 50.5301 15.4382 50.5301 22.492C50.5301 25.9845 51.7935 29.1273 54.0858 31.34C56.566 33.7352 60.1381 35 64.4181 35C71.3059 35 74.3966 30.3016 75.195 28.045H70.2538C69.5638 29.6212 67.3716 31.2385 63.9902 31.2385C58.2876 31.2385 55.721 27.1821 55.721 24.3027V23.9913H75.8301ZM55.769 20.6345C55.769 17.3669 58.7129 13.8414 63.4661 13.8414C67.6775 13.8414 70.7366 16.6989 70.7366 20.6345V20.9459H55.7703V20.6345H55.769Z" fill="white"/>
<path d="M101.643 9.96609C93.8569 9.96609 88.6249 14.9485 88.6249 22.3644C88.6249 26.0339 89.8664 29.1836 92.2121 31.4772C94.5716 33.7805 97.8337 35 101.643 35C105.453 35 108.685 33.7517 111.074 31.3881C113.389 29.0985 114.662 25.8926 114.662 22.3644C114.662 15.0651 109.31 9.96609 101.643 9.96609ZM101.643 30.4566C96.606 30.4566 93.5976 27.4318 93.5976 22.363C93.5976 17.2942 96.606 14.5081 101.643 14.5081C106.68 14.5081 109.689 17.4438 109.689 22.363C109.689 26.2754 107.576 30.4566 101.643 30.4566Z" fill="white"/>
<path d="M4.09069 34.5405C6.34992 34.5405 8.18139 32.709 8.18139 30.4498C8.18139 28.1905 6.34992 26.3591 4.09069 26.3591C1.83147 26.3591 0 28.1905 0 30.4498C0 32.709 1.83147 34.5405 4.09069 34.5405Z" fill="#FF4805"/>
<path d="M85.7866 29.8297C83.6425 29.8297 82.9278 29.2577 82.9278 27.3042V0H77.8768V28.783C77.8768 32.6419 79.0648 34.5473 85.5493 34.5473H88.8375V29.8297H85.7866Z" fill="white"/>
</g>
<defs>
<clipPath id="clip0_70_81">
<rect width="114.66" height="35" fill="white"/>
</clipPath>
</defs>
</svg>
