<svg width="20" height="32" viewBox="0 0 20 32" fill="none" xmlns="http://www.w3.org/2000/svg">
<path fill-rule="evenodd" clip-rule="evenodd" d="M10 6C10.2652 6 10.5196 6.10536 10.7071 6.29289C10.8946 6.48043 11 6.73478 11 7V11C11 11.2652 10.8946 11.5196 10.7071 11.7071C10.5196 11.8946 10.2652 12 10 12C9.73479 12 9.48043 11.8946 9.29289 11.7071C9.10536 11.5196 9 11.2652 9 11V7C9 6.73478 9.10536 6.48043 9.29289 6.29289C9.48043 6.10536 9.73479 6 10 6ZM18 22V10C18 7.87827 17.1571 5.84344 15.6569 4.34315C14.1566 2.84285 12.1217 2 10 2C7.87827 2 5.84344 2.84285 4.34315 4.34315C2.84285 5.84344 2 7.87827 2 10V22C2 24.1217 2.84285 26.1566 4.34315 27.6569C5.84344 29.1571 7.87827 30 10 30C12.1217 30 14.1566 29.1571 15.6569 27.6569C17.1571 26.1566 18 24.1217 18 22ZM10 0C7.34784 0 4.8043 1.05357 2.92893 2.92893C1.05357 4.8043 0 7.34784 0 10V22C0 24.6522 1.05357 27.1957 2.92893 29.0711C4.8043 30.9464 7.34784 32 10 32C12.6522 32 15.1957 30.9464 17.0711 29.0711C18.9464 27.1957 20 24.6522 20 22V10C20 7.34784 18.9464 4.8043 17.0711 2.92893C15.1957 1.05357 12.6522 0 10 0Z" fill="#5A5A5A"/>
</svg>
