<svg width="20" height="20" viewBox="0 0 20 20" fill="none" xmlns="http://www.w3.org/2000/svg">
<path d="M17.9995 13.9791V16.3877C18.0004 16.6113 17.9545 16.8327 17.8648 17.0375C17.775 17.2424 17.6434 17.4263 17.4783 17.5775C17.3132 17.7286 17.1183 17.8437 16.906 17.9154C16.6938 17.987 16.4689 18.0136 16.2457 17.9935C13.7702 17.725 11.3923 16.8808 9.30312 15.5286C7.35937 14.2959 5.71141 12.6512 4.47627 10.7113C3.11669 8.61679 2.27059 6.23206 2.00653 3.75036C1.98643 3.52834 2.01286 3.30457 2.08416 3.0933C2.15546 2.88203 2.27005 2.6879 2.42065 2.52325C2.57124 2.35861 2.75454 2.22706 2.95886 2.13699C3.16319 2.04691 3.38407 2.00029 3.60744 2.00008H6.02086C6.41128 1.99624 6.78977 2.13422 7.0858 2.3883C7.38182 2.64237 7.57517 2.99521 7.62981 3.38103C7.73168 4.15185 7.92059 4.9087 8.19295 5.63713C8.30118 5.9245 8.32461 6.23682 8.26045 6.53707C8.19629 6.83732 8.04723 7.11292 7.83093 7.33121L6.80925 8.35087C7.95446 10.3609 9.62206 12.0252 11.6361 13.1682L12.6578 12.1485C12.8765 11.9326 13.1527 11.7839 13.4535 11.7198C13.7544 11.6558 14.0673 11.6792 14.3552 11.7872C15.0851 12.059 15.8435 12.2476 16.6158 12.3492C17.0066 12.4042 17.3635 12.6007 17.6186 12.9012C17.8737 13.2017 18.0093 13.5853 17.9995 13.9791Z" stroke="#FF5E29" stroke-linecap="round" stroke-linejoin="round"/>
</svg>
