<svg width="104" height="73" viewBox="0 0 104 73" fill="none" xmlns="http://www.w3.org/2000/svg">
<g clip-path="url(#clip0_70_49)">
<path d="M101.187 11.96C100.632 9.74521 99.5033 7.71596 97.9137 6.07719C96.3241 4.43842 94.3302 3.24815 92.1333 2.62663C84.1067 0.666626 52 0.666626 52 0.666626C52 0.666626 19.8933 0.666626 11.8667 2.81329C9.66982 3.43482 7.67589 4.62508 6.08628 6.26385C4.49667 7.90263 3.36768 9.93187 2.81333 12.1466C1.34433 20.2926 0.625766 28.5561 0.666665 36.8333C0.614302 45.1728 1.33291 53.4994 2.81333 61.7066C3.42447 63.8526 4.57876 65.8046 6.16467 67.3742C7.75058 68.9438 9.71449 70.0778 11.8667 70.6666C19.8933 72.8133 52 72.8133 52 72.8133C52 72.8133 84.1067 72.8133 92.1333 70.6666C94.3302 70.0451 96.3241 68.8548 97.9137 67.2161C99.5033 65.5773 100.632 63.548 101.187 61.3333C102.644 53.2487 103.363 45.0482 103.333 36.8333C103.386 28.4938 102.667 20.1672 101.187 11.96Z" fill="#FF5E29"/>
<path d="M41.5 45.217C41.5 48.2846 44.8108 50.2105 47.4774 48.6941L62.2192 40.3104C64.9161 38.7768 64.9161 34.89 62.2192 33.3563L47.4774 24.9727C44.8108 23.4562 41.5 25.3821 41.5 28.4497V45.217Z" fill="white"/>
</g>
<defs>
<clipPath id="clip0_70_49">
<rect width="104" height="73" fill="white"/>
</clipPath>
</defs>
</svg>
